<svg width="21" height="21" viewBox="0 0 21 21" fill="none" xmlns="http://www.w3.org/2000/svg">
<path d="M0.718973 0.718955C0.992451 0.44556 1.36332 0.291974 1.75001 0.291974C2.13671 0.291974 2.50758 0.44556 2.78106 0.718955L10.5 8.43791L18.219 0.718955C18.3535 0.579669 18.5144 0.46857 18.6923 0.39214C18.8703 0.31571 19.0616 0.27548 19.2553 0.273798C19.4489 0.272115 19.6409 0.309013 19.8202 0.382339C19.9994 0.455666 20.1622 0.563951 20.2991 0.700878C20.4361 0.837805 20.5443 1.00063 20.6177 1.17985C20.691 1.35908 20.7279 1.55111 20.7262 1.74475C20.7245 1.93838 20.6843 2.12975 20.6079 2.30767C20.5314 2.48559 20.4203 2.64651 20.2811 2.78104L12.5621 10.5L20.2811 18.219C20.5467 18.494 20.6937 18.8624 20.6904 19.2447C20.6871 19.6271 20.5337 19.9929 20.2633 20.2633C19.9929 20.5337 19.6271 20.687 19.2448 20.6904C18.8624 20.6937 18.494 20.5467 18.219 20.281L10.5 12.5621L2.78106 20.281C2.50601 20.5467 2.13763 20.6937 1.75526 20.6904C1.37289 20.687 1.00712 20.5337 0.736737 20.2633C0.46635 19.9929 0.312978 19.6271 0.309656 19.2447C0.306333 18.8624 0.453325 18.494 0.718973 18.219L8.43793 10.5L0.718973 2.78104C0.445577 2.50756 0.291992 2.13669 0.291992 1.75C0.291992 1.3633 0.445577 0.992433 0.718973 0.718955V0.718955Z" fill="white"/>
</svg>
