<svg width="35" height="35" viewBox="0 0 35 35" fill="none" xmlns="http://www.w3.org/2000/svg">
<path d="M28.3008 24.1992C27.4805 23.3789 26.5462 23.1283 25.498 23.4473L23.3105 21.2598C25.2702 18.8444 26.25 16.1328 26.25 13.125C26.25 9.47917 24.974 6.38021 22.4219 3.82812C19.8698 1.27604 16.7708 0 13.125 0C9.47917 0 6.38021 1.27604 3.82812 3.82812C1.27604 6.38021 0 9.47917 0 13.125C0 16.7708 1.27604 19.8698 3.82812 22.4219C6.38021 24.974 9.47917 26.25 13.125 26.25C16.3151 26.25 19.0267 25.2702 21.2598 23.3105L23.4473 25.498C23.1738 26.5918 23.4245 27.526 24.1992 28.3008L30.0098 34.1113C30.6022 34.7038 31.2858 35 32.0605 35C32.8809 35 33.5645 34.7038 34.1113 34.1113C34.7038 33.5189 35 32.8353 35 32.0605C35 31.2858 34.7038 30.6022 34.1113 30.0098L28.3008 24.1992ZM13.125 23.3105C10.2995 23.3105 7.89551 22.3193 5.91309 20.3369C3.93066 18.3545 2.93945 15.9505 2.93945 13.125C2.93945 10.2995 3.93066 7.89551 5.91309 5.91309C7.89551 3.93066 10.2995 2.93945 13.125 2.93945C15.9505 2.93945 18.3545 3.93066 20.3369 5.91309C22.3193 7.89551 23.3105 10.2995 23.3105 13.125C23.3105 15.9505 22.3193 18.3545 20.3369 20.3369C18.3545 22.3193 15.9505 23.3105 13.125 23.3105Z" fill="white"/>
</svg>
